<svg width="800" height="400" viewBox="0 0 800 400" xmlns="http://www.w3.org/2000/svg">
    <!-- Main Castle Body -->
    <path d="M200 350 h400 v-200 h-400 v200" fill="#2a1810" stroke="#3d2815" stroke-width="4"/>
    
    <!-- Towers -->
    <g id="leftTower">
        <path d="M180 350 v-250 h60 v250" fill="#2a1810" stroke="#3d2815" stroke-width="4"/>
        <path d="M170 100 h80 l-40 -40 z" fill="#3d2815" stroke="#2a1810" stroke-width="2"/>
        <!-- Tower Windows -->
        <rect x="195" y="120" width="30" height="40" fill="#c17f59" opacity="0.3">
            <animate attributeName="opacity" values="0.3;0.6;0.3" dur="4s" repeatCount="indefinite"/>
        </rect>
    </g>
    
    <g id="rightTower">
        <path d="M560 350 v-250 h60 v250" fill="#2a1810" stroke="#3d2815" stroke-width="4"/>
        <path d="M550 100 h80 l-40 -40 z" fill="#3d2815" stroke="#2a1810" stroke-width="2"/>
        <!-- Tower Windows -->
        <rect x="575" y="120" width="30" height="40" fill="#c17f59" opacity="0.3">
            <animate attributeName="opacity" values="0.3;0.6;0.3" dur="4s" repeatCount="indefinite"/>
        </rect>
    </g>
    
    <!-- Dragon Banners -->
    <g id="leftBanner">
        <rect x="210" y="120" width="40" height="60" fill="#8b0000" stroke="#ffd700" stroke-width="2">
            <animate attributeName="transform" attributeType="XML" 
                type="rotate" from="-5" to="5" dur="4s" 
                repeatCount="indefinite" additive="sum"/>
        </rect>
        <path d="M230 130 l10 15 l-10 15 l-10 -15 z" fill="#ffd700"/>
    </g>
    
    <g id="rightBanner">
        <rect x="550" y="120" width="40" height="60" fill="#8b0000" stroke="#ffd700" stroke-width="2">
            <animate attributeName="transform" attributeType="XML" 
                type="rotate" from="-5" to="5" dur="4s" 
                repeatCount="indefinite" additive="sum"/>
        </rect>
        <path d="M570 130 l10 15 l-10 15 l-10 -15 z" fill="#ffd700"/>
    </g>
    
    <!-- Drawbridge -->
    <path d="M350 350 h100 v-80 h-100 z" fill="#3d2815" stroke="#2a1810" stroke-width="4">
        <animate attributeName="d" 
            values="M350 350 h100 v-80 h-100 z;M350 350 h100 l-50 40 l-50 -40 z;M350 350 h100 v-80 h-100 z" 
            dur="10s" 
            repeatCount="indefinite"/>
    </path>
    
    <!-- Moat -->
    <path d="M150 360 h500 v20 h-500 z" fill="#4a90e2" opacity="0.6">
        <animate attributeName="opacity" values="0.6;0.8;0.6" dur="3s" repeatCount="indefinite"/>
    </path>
    
    <!-- Torches -->
    <g class="torch" transform="translate(250,200)">
        <circle cx="0" cy="0" r="5" fill="#ff4d00">
            <animate attributeName="r" values="5;6;5" dur="0.5s" repeatCount="indefinite"/>
        </circle>
        <circle cx="0" cy="0" r="8" fill="#ff4d00" opacity="0.5">
            <animate attributeName="r" values="8;10;8" dur="0.5s" repeatCount="indefinite"/>
        </circle>
    </g>
    
    <g class="torch" transform="translate(550,200)">
        <circle cx="0" cy="0" r="5" fill="#ff4d00">
            <animate attributeName="r" values="5;6;5" dur="0.5s" repeatCount="indefinite"/>
        </circle>
        <circle cx="0" cy="0" r="8" fill="#ff4d00" opacity="0.5">
            <animate attributeName="r" values="8;10;8" dur="0.5s" repeatCount="indefinite"/>
        </circle>
    </g>
</svg>
